{
    "asset" : {
        "generator" : "Khronos glTF Blender I/O v1.6.16",
        "version" : "2.0"
    },
    "scene" : 0,
    "scenes" : [
        {
            "name" : "Scene",
            "nodes" : [
                0,
                1,
                2,
                3,
                4,
                5,
                6
            ]
        }
    ],
    "nodes" : [
        {
            "mesh" : 0,
            "name" : "Cube",
            "scale" : [
                6.40208101272583,
                1,
                20.172557830810547
            ]
        },
        {
            "mesh" : 1,
            "name" : "Cube.001",
            "scale" : [
                6.34813928604126,
                6.34813928604126,
                4.759083271026611
            ],
            "translation" : [
                0,
                7.493654251098633,
                -15.34943675994873
            ]
        },
        {
            "mesh" : 2,
            "name" : "Cube.002",
            "scale" : [
                5.975703239440918,
                7.891149997711182,
                14.554486274719238
            ],
            "translation" : [
                0,
                7.9982733726501465,
                4.673337936401367
            ]
        },
        {
            "mesh" : 3,
            "name" : "Cylinder",
            "rotation" : [
                0,
                0,
                -0.7071067690849304,
                0.7071068286895752
            ],
            "scale" : [
                3.9097604751586914,
                0.3909761309623718,
                3.9097604751586914
            ],
            "translation" : [
                -6.711487770080566,
                0,
                -13.557644844055176
            ]
        },
        {
            "mesh" : 4,
            "name" : "Cylinder.001",
            "rotation" : [
                0,
                0,
                -0.7071067690849304,
                0.7071068286895752
            ],
            "scale" : [
                3.9097604751586914,
                0.3909761309623718,
                3.9097604751586914
            ],
            "translation" : [
                -6.711487770080566,
                0,
                12.600251197814941
            ]
        },
        {
            "mesh" : 5,
            "name" : "Cylinder.003",
            "rotation" : [
                0,
                0,
                -0.7071067690849304,
                0.7071068286895752
            ],
            "scale" : [
                3.9097604751586914,
                0.3909761309623718,
                3.9097604751586914
            ],
            "translation" : [
                6.577521324157715,
                0,
                -13.557644844055176
            ]
        },
        {
            "mesh" : 6,
            "name" : "Cylinder.002",
            "rotation" : [
                0,
                0,
                -0.7071067690849304,
                0.7071068286895752
            ],
            "scale" : [
                3.9097604751586914,
                0.3909761309623718,
                3.9097604751586914
            ],
            "translation" : [
                6.577521324157715,
                0,
                12.600251197814941
            ]
        }
    ],
    "animations" : [
        {
            "channels" : [
                {
                    "sampler" : 0,
                    "target" : {
                        "node" : 0,
                        "path" : "translation"
                    }
                }
            ],
            "name" : "CubeAction.001",
            "samplers" : [
                {
                    "input" : 24,
                    "interpolation" : "LINEAR",
                    "output" : 25
                }
            ]
        },
        {
            "channels" : [
                {
                    "sampler" : 0,
                    "target" : {
                        "node" : 1,
                        "path" : "translation"
                    }
                }
            ],
            "name" : "Cube.001Action.001",
            "samplers" : [
                {
                    "input" : 24,
                    "interpolation" : "LINEAR",
                    "output" : 26
                }
            ]
        },
        {
            "channels" : [
                {
                    "sampler" : 0,
                    "target" : {
                        "node" : 2,
                        "path" : "translation"
                    }
                }
            ],
            "name" : "Cube.002Action.001",
            "samplers" : [
                {
                    "input" : 24,
                    "interpolation" : "LINEAR",
                    "output" : 27
                }
            ]
        },
        {
            "channels" : [
                {
                    "sampler" : 0,
                    "target" : {
                        "node" : 3,
                        "path" : "translation"
                    }
                }
            ],
            "name" : "CylinderAction.001",
            "samplers" : [
                {
                    "input" : 24,
                    "interpolation" : "LINEAR",
                    "output" : 28
                }
            ]
        },
        {
            "channels" : [
                {
                    "sampler" : 0,
                    "target" : {
                        "node" : 4,
                        "path" : "translation"
                    }
                }
            ],
            "name" : "Cylinder.001Action.001",
            "samplers" : [
                {
                    "input" : 24,
                    "interpolation" : "LINEAR",
                    "output" : 29
                }
            ]
        },
        {
            "channels" : [
                {
                    "sampler" : 0,
                    "target" : {
                        "node" : 5,
                        "path" : "translation"
                    }
                }
            ],
            "name" : "Cylinder.003Action.001",
            "samplers" : [
                {
                    "input" : 24,
                    "interpolation" : "LINEAR",
                    "output" : 30
                }
            ]
        },
        {
            "channels" : [
                {
                    "sampler" : 0,
                    "target" : {
                        "node" : 6,
                        "path" : "translation"
                    }
                }
            ],
            "name" : "Cylinder.002Action.001",
            "samplers" : [
                {
                    "input" : 24,
                    "interpolation" : "LINEAR",
                    "output" : 31
                }
            ]
        }
    ],
    "meshes" : [
        {
            "name" : "Cube",
            "primitives" : [
                {
                    "attributes" : {
                        "POSITION" : 0,
                        "NORMAL" : 1,
                        "TEXCOORD_0" : 2
                    },
                    "indices" : 3
                }
            ]
        },
        {
            "name" : "Cube.001",
            "primitives" : [
                {
                    "attributes" : {
                        "POSITION" : 4,
                        "NORMAL" : 5,
                        "TEXCOORD_0" : 6
                    },
                    "indices" : 7
                }
            ]
        },
        {
            "name" : "Cube.002",
            "primitives" : [
                {
                    "attributes" : {
                        "POSITION" : 8,
                        "NORMAL" : 9,
                        "TEXCOORD_0" : 10
                    },
                    "indices" : 3
                }
            ]
        },
        {
            "name" : "Cylinder",
            "primitives" : [
                {
                    "attributes" : {
                        "POSITION" : 11,
                        "NORMAL" : 12,
                        "TEXCOORD_0" : 13
                    },
                    "indices" : 14
                }
            ]
        },
        {
            "name" : "Cylinder.001",
            "primitives" : [
                {
                    "attributes" : {
                        "POSITION" : 15,
                        "NORMAL" : 16,
                        "TEXCOORD_0" : 17
                    },
                    "indices" : 14
                }
            ]
        },
        {
            "name" : "Cylinder.003",
            "primitives" : [
                {
                    "attributes" : {
                        "POSITION" : 18,
                        "NORMAL" : 19,
                        "TEXCOORD_0" : 20
                    },
                    "indices" : 14
                }
            ]
        },
        {
            "name" : "Cylinder.002",
            "primitives" : [
                {
                    "attributes" : {
                        "POSITION" : 21,
                        "NORMAL" : 22,
                        "TEXCOORD_0" : 23
                    },
                    "indices" : 14
                }
            ]
        }
    ],
    "accessors" : [
        {
            "bufferView" : 0,
            "componentType" : 5126,
            "count" : 24,
            "max" : [
                1,
                1,
                1
            ],
            "min" : [
                -1,
                -1,
                -1
            ],
            "type" : "VEC3"
        },
        {
            "bufferView" : 1,
            "componentType" : 5126,
            "count" : 24,
            "type" : "VEC3"
        },
        {
            "bufferView" : 2,
            "componentType" : 5126,
            "count" : 24,
            "type" : "VEC2"
        },
        {
            "bufferView" : 3,
            "componentType" : 5123,
            "count" : 36,
            "type" : "SCALAR"
        },
        {
            "bufferView" : 4,
            "componentType" : 5126,
            "count" : 34,
            "max" : [
                1,
                1,
                1
            ],
            "min" : [
                -1,
                -1,
                -1
            ],
            "type" : "VEC3"
        },
        {
            "bufferView" : 5,
            "componentType" : 5126,
            "count" : 34,
            "type" : "VEC3"
        },
        {
            "bufferView" : 6,
            "componentType" : 5126,
            "count" : 34,
            "type" : "VEC2"
        },
        {
            "bufferView" : 7,
            "componentType" : 5123,
            "count" : 60,
            "type" : "SCALAR"
        },
        {
            "bufferView" : 8,
            "componentType" : 5126,
            "count" : 24,
            "max" : [
                1,
                1,
                1
            ],
            "min" : [
                -1,
                -1,
                -1
            ],
            "type" : "VEC3"
        },
        {
            "bufferView" : 9,
            "componentType" : 5126,
            "count" : 24,
            "type" : "VEC3"
        },
        {
            "bufferView" : 10,
            "componentType" : 5126,
            "count" : 24,
            "type" : "VEC2"
        },
        {
            "bufferView" : 11,
            "componentType" : 5126,
            "count" : 192,
            "max" : [
                1,
                1,
                1
            ],
            "min" : [
                -1,
                -1,
                -1
            ],
            "type" : "VEC3"
        },
        {
            "bufferView" : 12,
            "componentType" : 5126,
            "count" : 192,
            "type" : "VEC3"
        },
        {
            "bufferView" : 13,
            "componentType" : 5126,
            "count" : 192,
            "type" : "VEC2"
        },
        {
            "bufferView" : 14,
            "componentType" : 5123,
            "count" : 372,
            "type" : "SCALAR"
        },
        {
            "bufferView" : 15,
            "componentType" : 5126,
            "count" : 192,
            "max" : [
                1,
                1,
                1
            ],
            "min" : [
                -1,
                -1,
                -1
            ],
            "type" : "VEC3"
        },
        {
            "bufferView" : 16,
            "componentType" : 5126,
            "count" : 192,
            "type" : "VEC3"
        },
        {
            "bufferView" : 17,
            "componentType" : 5126,
            "count" : 192,
            "type" : "VEC2"
        },
        {
            "bufferView" : 18,
            "componentType" : 5126,
            "count" : 192,
            "max" : [
                1,
                1,
                1
            ],
            "min" : [
                -1,
                -1,
                -1
            ],
            "type" : "VEC3"
        },
        {
            "bufferView" : 19,
            "componentType" : 5126,
            "count" : 192,
            "type" : "VEC3"
        },
        {
            "bufferView" : 20,
            "componentType" : 5126,
            "count" : 192,
            "type" : "VEC2"
        },
        {
            "bufferView" : 21,
            "componentType" : 5126,
            "count" : 192,
            "max" : [
                1,
                1,
                1
            ],
            "min" : [
                -1,
                -1,
                -1
            ],
            "type" : "VEC3"
        },
        {
            "bufferView" : 22,
            "componentType" : 5126,
            "count" : 192,
            "type" : "VEC3"
        },
        {
            "bufferView" : 23,
            "componentType" : 5126,
            "count" : 192,
            "type" : "VEC2"
        },
        {
            "bufferView" : 24,
            "componentType" : 5126,
            "count" : 61,
            "max" : [
                2.5
            ],
            "min" : [
                0
            ],
            "type" : "SCALAR"
        },
        {
            "bufferView" : 25,
            "componentType" : 5126,
            "count" : 61,
            "type" : "VEC3"
        },
        {
            "bufferView" : 26,
            "componentType" : 5126,
            "count" : 61,
            "type" : "VEC3"
        },
        {
            "bufferView" : 27,
            "componentType" : 5126,
            "count" : 61,
            "type" : "VEC3"
        },
        {
            "bufferView" : 28,
            "componentType" : 5126,
            "count" : 61,
            "type" : "VEC3"
        },
        {
            "bufferView" : 29,
            "componentType" : 5126,
            "count" : 61,
            "type" : "VEC3"
        },
        {
            "bufferView" : 30,
            "componentType" : 5126,
            "count" : 61,
            "type" : "VEC3"
        },
        {
            "bufferView" : 31,
            "componentType" : 5126,
            "count" : 61,
            "type" : "VEC3"
        }
    ],
    "bufferViews" : [
        {
            "buffer" : 0,
            "byteLength" : 288,
            "byteOffset" : 0
        },
        {
            "buffer" : 0,
            "byteLength" : 288,
            "byteOffset" : 288
        },
        {
            "buffer" : 0,
            "byteLength" : 192,
            "byteOffset" : 576
        },
        {
            "buffer" : 0,
            "byteLength" : 72,
            "byteOffset" : 768
        },
        {
            "buffer" : 0,
            "byteLength" : 408,
            "byteOffset" : 840
        },
        {
            "buffer" : 0,
            "byteLength" : 408,
            "byteOffset" : 1248
        },
        {
            "buffer" : 0,
            "byteLength" : 272,
            "byteOffset" : 1656
        },
        {
            "buffer" : 0,
            "byteLength" : 120,
            "byteOffset" : 1928
        },
        {
            "buffer" : 0,
            "byteLength" : 288,
            "byteOffset" : 2048
        },
        {
            "buffer" : 0,
            "byteLength" : 288,
            "byteOffset" : 2336
        },
        {
            "buffer" : 0,
            "byteLength" : 192,
            "byteOffset" : 2624
        },
        {
            "buffer" : 0,
            "byteLength" : 2304,
            "byteOffset" : 2816
        },
        {
            "buffer" : 0,
            "byteLength" : 2304,
            "byteOffset" : 5120
        },
        {
            "buffer" : 0,
            "byteLength" : 1536,
            "byteOffset" : 7424
        },
        {
            "buffer" : 0,
            "byteLength" : 744,
            "byteOffset" : 8960
        },
        {
            "buffer" : 0,
            "byteLength" : 2304,
            "byteOffset" : 9704
        },
        {
            "buffer" : 0,
            "byteLength" : 2304,
            "byteOffset" : 12008
        },
        {
            "buffer" : 0,
            "byteLength" : 1536,
            "byteOffset" : 14312
        },
        {
            "buffer" : 0,
            "byteLength" : 2304,
            "byteOffset" : 15848
        },
        {
            "buffer" : 0,
            "byteLength" : 2304,
            "byteOffset" : 18152
        },
        {
            "buffer" : 0,
            "byteLength" : 1536,
            "byteOffset" : 20456
        },
        {
            "buffer" : 0,
            "byteLength" : 2304,
            "byteOffset" : 21992
        },
        {
            "buffer" : 0,
            "byteLength" : 2304,
            "byteOffset" : 24296
        },
        {
            "buffer" : 0,
            "byteLength" : 1536,
            "byteOffset" : 26600
        },
        {
            "buffer" : 0,
            "byteLength" : 244,
            "byteOffset" : 28136
        },
        {
            "buffer" : 0,
            "byteLength" : 732,
            "byteOffset" : 28380
        },
        {
            "buffer" : 0,
            "byteLength" : 732,
            "byteOffset" : 29112
        },
        {
            "buffer" : 0,
            "byteLength" : 732,
            "byteOffset" : 29844
        },
        {
            "buffer" : 0,
            "byteLength" : 732,
            "byteOffset" : 30576
        },
        {
            "buffer" : 0,
            "byteLength" : 732,
            "byteOffset" : 31308
        },
        {
            "buffer" : 0,
            "byteLength" : 732,
            "byteOffset" : 32040
        },
        {
            "buffer" : 0,
            "byteLength" : 732,
            "byteOffset" : 32772
        }
    ],
    "buffers" : [
        {
            "byteLength" : 33504,
            "uri" : "data:application/octet-stream;base64,"
        }
    ]
}
